<svg width="24" height="24" viewBox="0 0 24 24" fill="none" xmlns="http://www.w3.org/2000/svg">
<path d="M13.0556 11.1204V16.2222C13.0556 16.5022 12.9443 16.7707 12.7464 16.9686C12.5484 17.1666 12.28 17.2778 12 17.2778C11.7201 17.2778 11.4516 17.1666 11.2536 16.9686C11.0557 16.7707 10.9444 16.5022 10.9444 16.2222V11.1204C10.9444 10.8404 11.0557 10.5719 11.2536 10.374C11.4516 10.176 11.7201 10.0648 12 10.0648C12.28 10.0648 12.5484 10.176 12.7464 10.374C12.9443 10.5719 13.0556 10.8404 13.0556 11.1204V11.1204ZM12.9711 7.37667C12.9478 7.31235 12.9171 7.25096 12.8796 7.1937C12.8389 7.13667 12.7943 7.08258 12.7459 7.03185C12.5438 6.84237 12.2771 6.73692 12 6.73692C11.7229 6.73692 11.4562 6.84237 11.2541 7.03185C11.2057 7.08258 11.1611 7.13667 11.1204 7.1937C11.0829 7.25096 11.0522 7.31235 11.0289 7.37667C11.0005 7.43976 10.9792 7.50585 10.9656 7.5737C10.9583 7.64153 10.9583 7.70995 10.9656 7.77778C10.966 7.91515 10.9923 8.0512 11.043 8.17889C11.1227 8.36842 11.2554 8.53096 11.4251 8.64703C11.5949 8.76309 11.7945 8.82778 12 8.83333C12.1374 8.83285 12.2734 8.8066 12.4011 8.75593C12.6613 8.64611 12.8683 8.43907 12.9781 8.17889C13.0288 8.0512 13.0551 7.91515 13.0556 7.77778C13.0628 7.70995 13.0628 7.64153 13.0556 7.5737C13.0352 7.50496 13.0068 7.43884 12.9711 7.37667V7.37667ZM21.5 12C21.5 13.8789 20.9428 15.7156 19.899 17.2779C18.8551 18.8402 17.3714 20.0578 15.6355 20.7769C13.8996 21.4959 11.9895 21.684 10.1466 21.3175C8.30383 20.9509 6.61109 20.0461 5.28249 18.7175C3.95389 17.3889 3.0491 15.6962 2.68254 13.8534C2.31598 12.0105 2.50412 10.1004 3.22315 8.36451C3.94218 6.62861 5.15982 5.14491 6.72209 4.10104C8.28435 3.05717 10.1211 2.5 12 2.5C14.5184 2.50372 16.9326 3.50581 18.7134 5.2866C20.4942 7.06739 21.4963 9.48159 21.5 12V12ZM19.3889 12C19.3889 10.5386 18.9555 9.11005 18.1436 7.89495C17.3317 6.67986 16.1777 5.7328 14.8276 5.17356C13.4775 4.61431 11.9918 4.46798 10.5585 4.75309C9.1252 5.03819 7.80862 5.74191 6.77527 6.77527C5.74192 7.80862 5.03819 9.12519 4.75309 10.5585C4.46799 11.9918 4.61431 13.4775 5.17356 14.8276C5.73281 16.1777 6.67986 17.3317 7.89496 18.1436C9.11005 18.9555 10.5386 19.3889 12 19.3889C13.9591 19.387 15.8374 18.608 17.2227 17.2227C18.608 15.8374 19.387 13.9591 19.3889 12V12Z" fill="#8B97A9"/>
</svg>
