<svg width="23" height="23" viewBox="0 0 23 23" fill="none" xmlns="http://www.w3.org/2000/svg">
<path d="M11.8696 0C12.4001 0.0738261 12.9337 0.126874 13.4589 0.225898C14.9814 0.512803 16.3739 1.11933 17.6515 1.99065C17.7477 2.05291 17.8306 2.13355 17.8956 2.22795C17.9606 2.32234 18.0062 2.42863 18.03 2.54071C18.0538 2.6528 18.0552 2.76847 18.0342 2.88111C18.0132 2.99374 17.9701 3.10111 17.9075 3.19707C17.8472 3.29478 17.7681 3.37948 17.6747 3.44618C17.5813 3.51288 17.4755 3.56024 17.3635 3.58549C17.2515 3.61073 17.1356 3.61335 17.0226 3.59318C16.9096 3.57302 16.8018 3.53048 16.7055 3.46806C15.9155 2.9641 15.1025 2.51141 14.2025 2.23866C11.1694 1.3187 8.32688 1.71745 5.73014 3.55205C3.84913 4.88048 2.59541 6.67883 2.03088 8.91749C1.34213 11.6486 1.75547 14.2294 3.32881 16.5653C4.93441 18.9499 7.18943 20.3672 10.0598 20.7438C12.1221 21.0135 14.065 20.6191 15.8876 19.6209C15.9973 19.5608 16.1047 19.4972 16.2161 19.4415C16.6653 19.2165 17.1648 19.3566 17.4026 19.7717C17.6462 20.197 17.5238 20.7336 17.0684 20.9697C16.3788 21.3278 15.6834 21.685 14.9575 21.9551C13.6635 22.4319 12.2872 22.6455 10.9095 22.5833C7.65007 22.4546 4.92204 21.1686 2.75809 18.7324C1.21084 16.9911 0.312545 14.9465 0.0384601 12.6318C0.0298253 12.5974 0.0169039 12.5643 0 12.5332C0 11.7095 0 10.8859 0 10.0625C0.0517225 9.76804 0.099024 9.47273 0.155167 9.17831C0.58884 6.92949 1.60959 4.98525 3.21961 3.36019C4.90745 1.65645 6.93568 0.583537 9.30474 0.175062C9.73046 0.101678 10.161 0.0583549 10.5894 0.00132751L11.8696 0Z" fill="#00577D"/>
<path d="M11.4705 15.6176C10.7229 15.6176 10.1717 15.3917 9.70837 14.9545C8.19795 13.5239 6.68842 12.0923 5.17978 10.6597C4.77263 10.2725 4.7461 9.73579 5.10109 9.36533C5.45607 8.99488 5.98744 8.99841 6.39857 9.38699C7.87215 10.781 9.34454 12.1769 10.8158 13.5747C11.2264 13.9647 11.482 13.9514 11.8325 13.5129C14.818 9.80004 17.8035 6.08825 20.7889 2.37749C20.9295 2.20287 21.0882 2.02383 21.2752 1.91111C21.616 1.70731 22.0532 1.80943 22.318 2.10429C22.5908 2.408 22.635 2.84211 22.3857 3.18162C22.0731 3.60778 21.7327 4.01404 21.4012 4.4265C18.6441 7.85787 15.8863 11.2891 13.1278 14.7202C12.6725 15.2873 12.0872 15.5875 11.4705 15.6176Z" fill="#00577D"/>
<path d="M22.5492 11.1919C22.505 13.6383 21.8733 15.6502 20.6828 17.4897C20.3813 17.9556 19.8769 18.0869 19.4247 17.815C19.0158 17.5688 18.8915 17.0259 19.1771 16.5772C19.781 15.6276 20.2483 14.6215 20.5122 13.5269C20.874 12.0348 20.8697 10.4774 20.4998 8.98728C20.4207 8.66103 20.4516 8.35467 20.6899 8.10313C20.9176 7.86132 21.2005 7.76318 21.5298 7.84098C21.8835 7.92454 22.1045 8.15397 22.1929 8.50409C22.4383 9.46604 22.5572 10.4483 22.5492 11.1919Z" fill="#00577D"/>
</svg>
