<svg width="24" height="24" viewBox="0 0 24 24" fill="none" xmlns="http://www.w3.org/2000/svg">
<path d="M12 2.5C6.75329 2.5 2.5 6.75329 2.5 12C2.5 17.2467 6.75329 21.5 12 21.5C17.2467 21.5 21.5 17.2467 21.5 12C21.494 6.75577 17.2442 2.50597 12 2.5ZM19.5335 11.05H16.654C16.2699 9.18639 14.8136 7.73011 12.95 7.34605V4.46602C16.3884 4.9042 19.0958 7.61156 19.534 11.05H19.5335ZM12 14.85C10.426 14.85 9.15 13.574 9.15 12C9.15 10.426 10.426 9.15 12 9.15C13.574 9.15 14.85 10.426 14.85 12C14.8483 13.5733 13.5733 14.8483 12 14.85ZM11.05 4.4665V7.34605C9.18639 7.73011 7.73011 9.18639 7.34605 11.05H4.46602C4.9042 7.61156 7.61156 4.9042 11.05 4.46602V4.4665ZM4.46602 12.95H7.34605C7.73011 14.8136 9.18639 16.2699 11.05 16.654V19.534C7.61156 19.0958 4.9042 16.3884 4.46602 12.95ZM12.95 19.534V16.654C14.8136 16.2699 16.2699 14.8136 16.654 12.95H19.534C19.0958 16.3884 16.3884 19.0958 12.95 19.534Z" fill="#8B97A9"/>
</svg>
