<svg width="19" height="20" viewBox="0 0 19 20" fill="none" xmlns="http://www.w3.org/2000/svg">
<g clip-path="url(#clip0_1_2064)">
<path d="M2.09454 15.878H3.09154V17.825C3.09154 18.5153 3.50204 19.1167 4.12172 19.3945L4.12166 19.3947L4.12926 19.3977C4.34105 19.4824 4.55619 19.526 4.77354 19.526C5.20636 19.526 5.6373 19.3531 5.95996 19.0304L9.09338 15.897H16.9145C17.899 15.897 18.7105 15.0855 18.7105 14.101V5.44112C18.7511 4.43 17.9323 3.641 16.9525 3.641H2.09454C1.11008 3.641 0.298535 4.45255 0.298535 5.437V14.082C0.298535 15.0665 1.11008 15.878 2.09454 15.878ZM17.2085 14.082C17.2085 14.2185 17.0891 14.338 16.9525 14.338H8.80154C8.60726 14.338 8.39653 14.4093 8.25532 14.5734L4.89811 17.9306C4.85921 17.9695 4.83177 17.9736 4.8139 17.9743C4.7896 17.9751 4.77155 17.9704 4.73755 17.9615C4.73273 17.9603 4.72759 17.959 4.72207 17.9575C4.72014 17.9565 4.71731 17.9549 4.71377 17.9525C4.70485 17.9465 4.69453 17.938 4.68502 17.927C4.66791 17.9072 4.65054 17.8766 4.65054 17.825V15.108C4.65054 14.6702 4.29063 14.338 3.88053 14.338H2.09454C1.95799 14.338 1.83854 14.2185 1.83854 14.082V5.437C1.83854 5.30046 1.95799 5.181 2.09454 5.181H16.9525C17.0891 5.181 17.2085 5.30046 17.2085 5.437V14.082Z" fill="#8B97A9" stroke="#8B97A9" stroke-width="0.4"/>
<path d="M15.3945 8.99025L14.5395 8.85725L14.1405 8.05925C14.1025 7.98325 14.0265 7.94525 13.9505 7.94525C13.8745 7.94525 13.7985 7.98325 13.7605 8.05925L13.3805 8.83825L12.5065 8.97125C12.4305 8.99025 12.3545 9.04725 12.3355 9.12325C12.3165 9.19925 12.3355 9.27525 12.3925 9.33225L13.0195 9.94025L12.8485 10.8143C12.8295 10.8903 12.8675 10.9663 12.9245 11.0233C12.9815 11.0613 13.0765 11.0803 13.1525 11.0423L13.9315 10.6433L14.7105 11.0613C14.7485 11.0803 14.7675 11.0803 14.8055 11.0803C14.8435 11.0803 14.9005 11.0613 14.9385 11.0423C14.9955 10.9853 15.0335 10.9093 15.0145 10.8333L14.8625 9.97825L15.4895 9.35125C15.5465 9.29425 15.5655 9.21825 15.5465 9.14225C15.5275 9.06625 15.4705 9.00925 15.3945 8.99025Z" fill="#8B97A9"/>
<path d="M10.9675 8.99019L10.1125 8.85719L9.71349 8.07819C9.67549 8.00219 9.59949 7.96419 9.52349 7.96419C9.44749 7.96419 9.37149 8.00219 9.33349 8.07819L8.95349 8.85719L8.07949 8.99019C8.00349 9.00919 7.92749 9.06619 7.90849 9.14219C7.88949 9.21819 7.90849 9.29419 7.96549 9.35119L8.59249 9.95919L8.44049 10.8142C8.42149 10.8902 8.45949 10.9662 8.51649 11.0232C8.57349 11.0612 8.66849 11.0802 8.74449 11.0422L9.52349 10.6432L10.3025 11.0612C10.3405 11.0802 10.3595 11.0802 10.3975 11.0802C10.4355 11.0802 10.4925 11.0612 10.5305 11.0422C10.5875 10.9852 10.6255 10.9092 10.6065 10.8332L10.4545 9.97819L11.0815 9.35119C11.1385 9.29419 11.1575 9.21819 11.1385 9.14219C11.1195 9.06619 11.0435 9.00919 10.9675 8.99019Z" fill="#8B97A9"/>
<path d="M6.55953 8.99025L5.70453 8.85725L5.30553 8.05925C5.26753 7.98325 5.19153 7.94525 5.11553 7.94525C5.03953 7.94525 4.96353 7.98325 4.92553 8.05925L4.54553 8.83825L3.67153 8.97125C3.59553 8.99025 3.51953 9.04725 3.50053 9.12325C3.48153 9.19925 3.50053 9.27525 3.55753 9.33225L4.18453 9.94025L4.01353 10.8143C3.99453 10.8903 4.03253 10.9663 4.08953 11.0233C4.14653 11.0613 4.24153 11.0803 4.31753 11.0423L5.09653 10.6433L5.87553 11.0613C5.91353 11.0803 5.93253 11.0803 5.97053 11.0803C6.00853 11.0803 6.06553 11.0613 6.10353 11.0423C6.16053 10.9853 6.19853 10.9093 6.17953 10.8333L6.02753 9.97825L6.65453 9.35125C6.71153 9.29425 6.73053 9.21825 6.71153 9.14225C6.69253 9.06625 6.63553 9.00925 6.55953 8.99025Z" fill="#8B97A9"/>
</g>
<defs>
<clipPath id="clip0_1_2064">
<rect width="19" height="19" fill="white" transform="translate(0 0.5)"/>
</clipPath>
</defs>
</svg>
