<svg width="24" height="24" viewBox="0 0 24 24" fill="none" xmlns="http://www.w3.org/2000/svg">
<path d="M10.8901 15.3227C10.4176 15.2777 9.51008 14.3927 9.03758 14.3477C8.57112 14.3069 8.10676 14.4465 7.74008 14.7377L6.48008 15.7502L5.73008 16.3502C5.47125 16.5566 5.30466 16.857 5.26671 17.1859C5.22877 17.5148 5.32256 17.8453 5.52759 18.1052L6.98258 20.0552C7.03416 20.1268 7.10343 20.1838 7.18362 20.2206C7.26381 20.2574 7.35218 20.2727 7.44009 20.2652C9.26345 20.0865 11.0255 19.5105 12.6023 18.5777C14.1792 17.6448 15.5324 16.3778 16.5669 14.8657C17.6014 13.3537 18.292 11.6333 18.5902 9.82559C18.8883 8.01792 18.7867 6.16688 18.2926 4.40268C18.2766 4.34904 18.2467 4.30062 18.2058 4.2624C18.165 4.22417 18.1147 4.19752 18.0601 4.18518L15.3001 3.75018C15.1399 3.71758 14.9748 3.71723 14.8145 3.74915C14.6542 3.78107 14.5019 3.84463 14.3664 3.9361C14.2309 4.02758 14.1151 4.14514 14.0256 4.28191C13.936 4.41868 13.8747 4.57192 13.8451 4.73268L13.6576 5.69268L13.3501 7.29768C13.2598 7.76279 13.3481 8.24486 13.5976 8.64768C13.8526 9.06018 15.0451 9.46518 15.2926 9.87768C14.6058 12.2299 13.0219 14.2178 10.8826 15.4127V15.3227H10.8901Z" stroke="#8B97A9" stroke-width="1.7" stroke-linecap="round" stroke-linejoin="round"/>
</svg>
