<svg width="22" height="22" viewBox="0 0 22 22" fill="none" xmlns="http://www.w3.org/2000/svg">
<path fill-rule="evenodd" clip-rule="evenodd" d="M5.16669 5C5.99511 5 6.66669 4.32843 6.66669 3.5C6.66669 2.67157 5.99511 2 5.16669 2C4.33826 2 3.66669 2.67157 3.66669 3.5C3.66669 4.32843 4.33826 5 5.16669 5Z" fill="#203B81"/>
<path fill-rule="evenodd" clip-rule="evenodd" d="M5.16669 10C5.99511 10 6.66669 9.32843 6.66669 8.5C6.66669 7.67157 5.99511 7 5.16669 7C4.33826 7 3.66669 7.67157 3.66669 8.5C3.66669 9.32843 4.33826 10 5.16669 10Z" fill="#203B81"/>
<path fill-rule="evenodd" clip-rule="evenodd" d="M5.16669 15C5.99511 15 6.66669 14.3284 6.66669 13.5C6.66669 12.6716 5.99511 12 5.16669 12C4.33826 12 3.66669 12.6716 3.66669 13.5C3.66669 14.3284 4.33826 15 5.16669 15Z" fill="#203B81"/>
<path fill-rule="evenodd" clip-rule="evenodd" d="M11.1667 5C11.9951 5 12.6667 4.32843 12.6667 3.5C12.6667 2.67157 11.9951 2 11.1667 2C10.3383 2 9.66669 2.67157 9.66669 3.5C9.66669 4.32843 10.3383 5 11.1667 5Z" fill="#203B81"/>
<path fill-rule="evenodd" clip-rule="evenodd" d="M11.1667 10C11.9951 10 12.6667 9.32843 12.6667 8.5C12.6667 7.67157 11.9951 7 11.1667 7C10.3383 7 9.66669 7.67157 9.66669 8.5C9.66669 9.32843 10.3383 10 11.1667 10Z" fill="#203B81"/>
<path fill-rule="evenodd" clip-rule="evenodd" d="M17.1667 5C17.9951 5 18.6667 4.32843 18.6667 3.5C18.6667 2.67157 17.9951 2 17.1667 2C16.3383 2 15.6667 2.67157 15.6667 3.5C15.6667 4.32843 16.3383 5 17.1667 5Z" fill="#203B81"/>
<path fill-rule="evenodd" clip-rule="evenodd" d="M17.1667 10C17.9951 10 18.6667 9.32843 18.6667 8.5C18.6667 7.67157 17.9951 7 17.1667 7C16.3383 7 15.6667 7.67157 15.6667 8.5C15.6667 9.32843 16.3383 10 17.1667 10Z" fill="#203B81"/>
<path fill-rule="evenodd" clip-rule="evenodd" d="M17.1667 15C17.9951 15 18.6667 14.3284 18.6667 13.5C18.6667 12.6716 17.9951 12 17.1667 12C16.3383 12 15.6667 12.6716 15.6667 13.5C15.6667 14.3284 16.3383 15 17.1667 15Z" fill="#203B81"/>
<path fill-rule="evenodd" clip-rule="evenodd" d="M11.1667 15C11.9951 15 12.6667 14.3284 12.6667 13.5C12.6667 12.6716 11.9951 12 11.1667 12C10.3383 12 9.66669 12.6716 9.66669 13.5C9.66669 14.3284 10.3383 15 11.1667 15Z" fill="#203B81"/>
<path fill-rule="evenodd" clip-rule="evenodd" d="M11.1667 20C11.9951 20 12.6667 19.3284 12.6667 18.5C12.6667 17.6716 11.9951 17 11.1667 17C10.3383 17 9.66669 17.6716 9.66669 18.5C9.66669 19.3284 10.3383 20 11.1667 20Z" fill="#203B81"/>
</svg>
