<svg width="23" height="23" viewBox="0 0 23 23" fill="none" xmlns="http://www.w3.org/2000/svg">
<path d="M11.0762 22.5944C11.0174 22.5656 10.9632 22.5356 10.9056 22.5073C10.5214 22.3279 10.3172 21.9478 10.369 21.513C10.3932 21.3178 10.4808 21.136 10.6185 20.9955C10.7562 20.8551 10.9362 20.7638 11.1309 20.7357C11.4869 20.6892 11.8493 20.6957 12.2077 20.6616C16.2275 20.2815 19.5854 17.3331 20.4721 13.4074C21.5988 8.41738 18.6163 3.48675 13.658 2.19231C12.9749 2.01579 12.2524 1.98637 11.5475 1.89165C11.3663 1.86752 11.1768 1.87694 11.0027 1.82869C10.8256 1.77498 10.6693 1.66819 10.5549 1.52276C10.4405 1.37733 10.3736 1.20028 10.3631 1.01555C10.3465 0.827331 10.3875 0.638526 10.4806 0.474105C10.5737 0.309685 10.7145 0.177394 10.8844 0.0947284L11.0762 0H12.0029C12.0587 0.0158548 12.1155 0.0278461 12.1729 0.0358904C13.924 0.168864 15.5626 0.669579 17.06 1.58628C19.9896 3.37966 21.7883 5.96677 22.4208 9.3529C22.4973 9.76477 22.5384 10.1796 22.5938 10.5938V12.0059C22.5777 12.0619 22.5655 12.1189 22.5573 12.1765C22.4243 13.9193 21.9277 15.5527 21.0175 17.0442C19.2241 19.9861 16.634 21.7895 13.242 22.4232C12.8302 22.4997 12.4183 22.5409 12.0023 22.5962L11.0762 22.5944Z" fill="#00577D"/>
<path d="M0 11.0769C0.029419 11.018 0.0588387 10.9651 0.087081 10.9074C0.176856 10.7117 0.330789 10.5525 0.523393 10.4562C0.715996 10.3599 0.935717 10.3322 1.14617 10.3779C1.35547 10.4265 1.54224 10.5443 1.67625 10.7123C1.81026 10.8802 1.88366 11.0885 1.88458 11.3034C1.88081 11.5144 1.80723 11.7183 1.67534 11.8831C1.54344 12.0478 1.36067 12.1643 1.15558 12.2142C0.942183 12.2629 0.718471 12.2358 0.522924 12.1374C0.327378 12.0391 0.17222 11.8756 0.084138 11.6752C0.054719 11.6088 0.0282429 11.5411 0.000588955 11.4734C0.000196702 11.3416 0 11.2094 0 11.0769Z" fill="#00577D"/>
<path d="M12.2347 8.02732C12.2347 8.5198 12.2288 9.01227 12.2406 9.50475C12.2443 9.55208 12.2574 9.59821 12.2791 9.64044C12.3008 9.68266 12.3307 9.72014 12.3671 9.75069C13.4556 10.5515 13.4538 12.0454 12.3636 12.8473C12.3275 12.8783 12.2979 12.9161 12.2767 12.9587C12.2555 13.0012 12.243 13.0476 12.24 13.095C12.2294 13.7634 12.24 14.433 12.2294 15.1014C12.2206 15.5786 11.8723 15.9381 11.391 15.9993C11.1734 16.022 10.9549 15.9674 10.7736 15.8451C10.5923 15.7228 10.4599 15.5405 10.3995 15.3303C10.3703 15.2092 10.3573 15.0847 10.3607 14.9602C10.3572 14.3577 10.3542 13.7546 10.3607 13.1521C10.3674 13.0847 10.355 13.0167 10.3251 12.9558C10.2951 12.895 10.2488 12.8438 10.1913 12.8079C9.94912 12.6361 9.75184 12.4086 9.61601 12.1445C9.48018 11.8805 9.4098 11.5877 9.41078 11.2908C9.41176 10.9939 9.48408 10.7016 9.62164 10.4385C9.75921 10.1754 9.958 9.94917 10.2013 9.77893C10.2534 9.74787 10.2959 9.70291 10.3239 9.64908C10.352 9.59526 10.3645 9.53469 10.3601 9.47415C10.3546 8.50411 10.3546 7.53387 10.3601 6.56343C10.361 6.37069 10.4228 6.18315 10.5367 6.02769C10.6507 5.87222 10.8109 5.75679 10.9944 5.69792C11.371 5.57318 11.7969 5.67851 12.0182 6.008C12.1358 6.18039 12.1629 6.41163 12.23 6.61638C12.2322 6.63101 12.2322 6.64589 12.23 6.66051C12.2331 7.11592 12.2347 7.57152 12.2347 8.02732Z" fill="#00577D"/>
<path d="M1.7304 8.26328C1.6072 8.26618 1.48465 8.24442 1.36998 8.19927C1.25531 8.15412 1.15083 8.08649 1.06267 8.00037C0.974521 7.91424 0.904481 7.81136 0.856673 7.69777C0.808864 7.58418 0.784253 7.46218 0.784287 7.33894C0.781545 7.21572 0.80344 7.0932 0.848686 6.97856C0.893931 6.86393 0.961616 6.75948 1.04777 6.67135C1.13393 6.58322 1.23681 6.51319 1.3504 6.46536C1.46398 6.41753 1.58598 6.39287 1.70922 6.39282C1.83241 6.39 1.95492 6.41182 2.06955 6.457C2.18419 6.50218 2.28864 6.56981 2.37678 6.65592C2.46491 6.74202 2.53495 6.84487 2.58279 6.95843C2.63063 7.07198 2.65529 7.19395 2.65534 7.31717C2.65816 7.4404 2.63632 7.56296 2.59111 7.67763C2.54589 7.79231 2.47821 7.89679 2.39204 7.98493C2.30587 8.07307 2.20294 8.1431 2.08932 8.19091C1.9757 8.23871 1.85367 8.26331 1.7304 8.26328Z" fill="#00577D"/>
<path d="M2.65546 15.2608C2.6575 15.3841 2.63491 15.5065 2.58903 15.6209C2.54314 15.7353 2.47488 15.8394 2.38824 15.9271C2.3016 16.0147 2.19833 16.0842 2.08448 16.1315C1.97063 16.1787 1.8485 16.2028 1.72523 16.2022C1.60192 16.2045 1.4794 16.1821 1.36489 16.1363C1.25037 16.0905 1.14618 16.0222 1.05846 15.9355C0.970726 15.8489 0.901231 15.7455 0.854066 15.6315C0.806901 15.5176 0.783018 15.3953 0.783824 15.272C0.781705 15.1468 0.80498 15.0225 0.852245 14.9066C0.899511 14.7907 0.969784 14.6856 1.05882 14.5976C1.14786 14.5096 1.2538 14.4406 1.37027 14.3947C1.48673 14.3488 1.61129 14.327 1.73641 14.3306C1.85785 14.3313 1.97796 14.3559 2.08988 14.403C2.2018 14.4502 2.30334 14.5189 2.38869 14.6053C2.47404 14.6917 2.54153 14.794 2.5873 14.9065C2.63308 15.019 2.65624 15.1394 2.65546 15.2608Z" fill="#00577D"/>
<path d="M8.25904 20.8629C8.25935 20.9864 8.23518 21.1087 8.18793 21.2228C8.14067 21.3369 8.07126 21.4405 7.98372 21.5276C7.89618 21.6147 7.79223 21.6836 7.6779 21.7303C7.56357 21.7769 7.44112 21.8005 7.31763 21.7996C7.19444 21.7995 7.07248 21.775 6.95879 21.7276C6.8451 21.6801 6.74193 21.6107 6.65523 21.5231C6.56853 21.4356 6.50002 21.3318 6.45365 21.2177C6.40727 21.1035 6.38396 20.9813 6.38505 20.8582C6.38434 20.7343 6.40822 20.6116 6.45528 20.4971C6.50234 20.3825 6.57166 20.2785 6.65921 20.1909C6.74677 20.1034 6.85083 20.034 6.96536 19.987C7.0799 19.9399 7.20263 19.916 7.32646 19.9167C7.45 19.917 7.57228 19.9417 7.68621 19.9895C7.80014 20.0373 7.90346 20.1072 7.99019 20.1952C8.07692 20.2832 8.14534 20.3875 8.19149 20.5021C8.23763 20.6167 8.2606 20.7393 8.25904 20.8629Z" fill="#00577D"/>
<path d="M8.25907 1.74337C8.25862 1.86692 8.23364 1.98915 8.18558 2.10296C8.13752 2.21678 8.06734 2.31992 7.97911 2.4064C7.89088 2.49288 7.78635 2.56098 7.67159 2.60675C7.55684 2.65251 7.43413 2.67504 7.3106 2.67301C7.18735 2.6718 7.06557 2.64614 6.9523 2.59754C6.83904 2.54894 6.73654 2.47835 6.65073 2.38987C6.56493 2.30138 6.49753 2.19676 6.45244 2.08205C6.40734 1.96734 6.38545 1.84483 6.38802 1.7216C6.38863 1.59838 6.41365 1.47651 6.46164 1.36301C6.50963 1.24952 6.57963 1.14667 6.66761 1.06039C6.75558 0.974109 6.85978 0.906121 6.97418 0.860351C7.08859 0.81458 7.21093 0.791934 7.33414 0.793723C7.45741 0.794714 7.57926 0.820136 7.69265 0.868517C7.80603 0.916898 7.9087 0.987281 7.99472 1.07559C8.08073 1.1639 8.14838 1.26839 8.19375 1.38301C8.23913 1.49763 8.26133 1.62011 8.25907 1.74337Z" fill="#00577D"/>
<path d="M3.03831 3.9527C3.03854 3.82952 3.0631 3.7076 3.1106 3.59395C3.15809 3.4803 3.22757 3.37715 3.31505 3.29044C3.40253 3.20372 3.50629 3.13515 3.62035 3.08866C3.73442 3.04216 3.85654 3.01867 3.97972 3.01952C4.10299 3.02036 4.22488 3.04561 4.33835 3.09379C4.45182 3.14198 4.55462 3.21216 4.64083 3.30028C4.72704 3.38841 4.79494 3.49273 4.84063 3.60723C4.88631 3.72173 4.90887 3.84414 4.907 3.96741C4.90685 4.09052 4.88233 4.21239 4.83484 4.32598C4.78735 4.43957 4.71784 4.54263 4.63032 4.62922C4.5428 4.71581 4.43901 4.78421 4.32492 4.83048C4.21083 4.87675 4.0887 4.89998 3.96559 4.89881C3.84242 4.89813 3.72061 4.87305 3.60719 4.82502C3.49376 4.777 3.39098 4.70698 3.30476 4.61902C3.21854 4.53105 3.15061 4.42688 3.10488 4.31251C3.05914 4.19815 3.03652 4.07585 3.03831 3.9527Z" fill="#00577D"/>
<path d="M4.90947 18.6199C4.91213 18.7433 4.8903 18.866 4.84526 18.9808C4.80023 19.0957 4.73287 19.2005 4.64708 19.2892C4.56129 19.3779 4.45878 19.4487 4.34546 19.4975C4.23214 19.5464 4.11027 19.5722 3.98689 19.5737C3.86363 19.5756 3.7412 19.5532 3.62667 19.5075C3.51214 19.4619 3.40778 19.3941 3.3196 19.3079C3.23142 19.2218 3.16118 19.119 3.11292 19.0056C3.06466 18.8921 3.03934 18.7703 3.03842 18.647C3.03577 18.5238 3.05761 18.4012 3.10268 18.2865C3.14774 18.1717 3.21514 18.0671 3.30096 17.9786C3.38677 17.8901 3.48931 17.8195 3.60261 17.7709C3.71591 17.7223 3.83773 17.6967 3.961 17.6956C4.08418 17.6932 4.20659 17.7154 4.32114 17.7607C4.43569 17.806 4.54011 17.8736 4.62833 17.9596C4.71656 18.0456 4.78684 18.1482 4.8351 18.2616C4.88336 18.3749 4.90864 18.4967 4.90947 18.6199Z" fill="#00577D"/>
</svg>
