<svg width="26" height="26" viewBox="0 0 26 26" fill="none" xmlns="http://www.w3.org/2000/svg">
<path d="M25.2937 16.3165C25.0936 16.1165 24.8223 16.0041 24.5394 16.0041C24.2565 16.0041 23.9852 16.1165 23.7851 16.3165L20.8051 19.2964L17.8252 16.3165C17.624 16.1222 17.3545 16.0146 17.0747 16.017C16.795 16.0195 16.5274 16.1317 16.3296 16.3295C16.1317 16.5273 16.0195 16.7949 16.0171 17.0747C16.0147 17.3544 16.1222 17.6239 16.3166 17.8251L19.2965 20.8051L16.3166 23.785C16.2147 23.8834 16.1334 24.0012 16.0775 24.1313C16.0215 24.2615 15.9921 24.4015 15.9909 24.5432C15.9897 24.6849 16.0166 24.8253 16.0703 24.9565C16.1239 25.0876 16.2032 25.2067 16.3033 25.3069C16.4035 25.4071 16.5226 25.4863 16.6538 25.5399C16.7849 25.5936 16.9254 25.6206 17.067 25.6193C17.2087 25.6181 17.3487 25.5887 17.4789 25.5328C17.6091 25.4768 17.7268 25.3956 17.8252 25.2937L20.8051 22.3137L23.7851 25.2937C23.9863 25.488 24.2558 25.5956 24.5356 25.5931C24.8153 25.5907 25.0829 25.4785 25.2807 25.2807C25.4785 25.0829 25.5908 24.8153 25.5932 24.5355C25.5956 24.2558 25.4881 23.9862 25.2937 23.785L22.3138 20.8051L25.2937 17.8251C25.4937 17.6251 25.6061 17.3537 25.6061 17.0708C25.6061 16.7879 25.4937 16.5166 25.2937 16.3165Z" fill="#00577D"/>
<path d="M12.8032 23.4725C10.693 23.4725 8.63018 22.8467 6.87562 21.6744C5.12106 20.502 3.75355 18.8357 2.94602 16.8861C2.13848 14.9366 1.9272 12.7913 2.33887 10.7217C2.75055 8.65205 3.7667 6.75096 5.25883 5.25883C6.75096 3.7667 8.65205 2.75055 10.7217 2.33887C12.7913 1.9272 14.9366 2.13848 16.8861 2.94602C18.8357 3.75355 20.502 5.12106 21.6744 6.87562C22.8467 8.63018 23.4725 10.693 23.4725 12.8032C23.4725 13.0861 23.5849 13.3575 23.785 13.5576C23.9851 13.7577 24.2564 13.8701 24.5394 13.8701C24.8224 13.8701 25.0937 13.7577 25.2938 13.5576C25.4939 13.3575 25.6063 13.0861 25.6063 12.8032C25.6063 10.2709 24.8554 7.79558 23.4486 5.69011C22.0418 3.58464 20.0422 1.94363 17.7027 0.974588C15.3633 0.00554743 12.789 -0.247998 10.3054 0.246015C7.82183 0.740028 5.54052 1.95941 3.74997 3.74997C1.95941 5.54052 0.740028 7.82183 0.246015 10.3054C-0.247998 12.789 0.00554743 15.3633 0.974588 17.7027C1.94363 20.0422 3.58464 22.0418 5.69011 23.4486C7.79558 24.8554 10.2709 25.6063 12.8032 25.6063C13.0861 25.6063 13.3575 25.4939 13.5576 25.2938C13.7577 25.0937 13.8701 24.8224 13.8701 24.5394C13.8701 24.2564 13.7577 23.9851 13.5576 23.785C13.3575 23.5849 13.0861 23.4725 12.8032 23.4725Z" fill="#00577D"/>
<path d="M12.8032 6.40158C12.5202 6.40158 12.2488 6.51399 12.0487 6.71408C11.8487 6.91417 11.7362 7.18554 11.7362 7.46851V12.3614L8.84806 15.2496C8.74616 15.348 8.66488 15.4658 8.60896 15.5959C8.55304 15.7261 8.52361 15.8661 8.52238 16.0078C8.52115 16.1495 8.54814 16.2899 8.60179 16.4211C8.65544 16.5522 8.73466 16.6713 8.83484 16.7715C8.93501 16.8717 9.05414 16.9509 9.18526 17.0045C9.31638 17.0582 9.45687 17.0852 9.59854 17.0839C9.74021 17.0827 9.88021 17.0533 10.0104 16.9974C10.1406 16.9414 10.2583 16.8602 10.3567 16.7583L13.5575 13.5575C13.7576 13.3574 13.87 13.0861 13.8701 12.8032V7.46851C13.8701 7.18554 13.7577 6.91417 13.5576 6.71408C13.3575 6.51399 13.0861 6.40158 12.8032 6.40158Z" fill="#00577D"/>
</svg>
