<svg width="40" height="40" viewBox="0 0 40 40" fill="none" xmlns="http://www.w3.org/2000/svg">
<circle cx="20" cy="20" r="20" fill="#00ACC8"/>
<path d="M28.0522 7.00131C28.52 7.16751 28.6764 7.50319 28.6653 7.98871C28.6424 9.01865 28.6601 10.0492 28.6574 11.0798C28.6574 11.657 28.3761 11.939 27.7996 11.9403C26.7199 11.9403 25.6403 11.9455 24.5612 11.9403C23.9671 11.937 23.5961 11.4574 23.7885 10.9516C23.8346 10.8098 23.9252 10.6867 24.0469 10.6006C24.1685 10.5144 24.3147 10.4697 24.4637 10.4733C24.8315 10.4654 25.1999 10.4733 25.5676 10.4733H25.8726C25.7633 10.3869 25.7135 10.3424 25.6566 10.3031C23.5536 8.93163 21.2424 8.28448 18.7402 8.5207C14.3639 8.93424 11.2002 11.1649 9.40793 15.1656C7.94547 18.4301 8.17122 21.7025 9.82605 24.8741C9.91177 25.039 10.008 25.2104 10.0381 25.3891C10.0655 25.5563 10.0316 25.7279 9.94265 25.8721C9.85368 26.0164 9.71561 26.1237 9.55384 26.1743C9.22144 26.2829 8.85566 26.1658 8.68946 25.8412C8.37275 25.2248 8.04558 24.6091 7.80086 23.9619C6.66262 20.9302 6.74023 17.5759 8.01748 14.6001C9.29472 11.6243 11.6727 9.25732 14.6545 7.99395C15.8962 7.46248 17.2177 7.14118 18.5648 7.04319C18.6369 7.03362 18.7084 7.01964 18.7788 7.00131H20.3002C20.3709 7.01861 20.4425 7.03194 20.5148 7.04122C22.6779 7.19421 24.7624 7.91537 26.5577 9.13185C26.7579 9.26272 26.9535 9.40602 27.1884 9.5683C27.1884 9.00753 27.2055 8.49387 27.1832 7.98152C27.1623 7.49534 27.337 7.16031 27.8088 7L28.0522 7.00131Z" fill="white"/>
<path d="M32.1254 20.3499C32.06 20.8184 32.007 21.2882 31.9291 21.7548C31.1334 26.6591 27.1524 30.8253 22.2736 31.8317C18.587 32.592 15.2008 31.8886 12.1312 29.6913C12.0802 29.6547 12.0285 29.62 11.9474 29.5644C11.9408 29.6776 11.933 29.7548 11.933 29.8327C11.933 30.3313 11.9389 30.8305 11.933 31.3291C11.9251 31.7872 11.6104 32.1144 11.1955 32.1144C10.7807 32.1144 10.4672 31.7872 10.4653 31.3259C10.4605 30.2056 10.4605 29.0854 10.4653 27.9652C10.4653 27.494 10.7591 27.195 11.2328 27.1911C12.3613 27.1819 13.4899 27.1819 14.6184 27.1911C15.0719 27.195 15.3971 27.5353 15.3827 27.9481C15.3683 28.361 15.0509 28.6522 14.5975 28.6581C14.1741 28.6633 13.7501 28.6581 13.2999 28.7065C13.3588 28.7497 13.4151 28.7962 13.4759 28.8374C15.5757 30.1991 17.8731 30.807 20.3701 30.6179C23.2433 30.4 25.6703 29.2274 27.6444 27.1368C29.2862 25.3962 30.2572 23.3239 30.555 20.9447C30.8592 18.5125 30.3927 16.2334 29.2005 14.0944C29.0395 13.8058 29.0042 13.5205 29.1946 13.2398C29.3654 12.9852 29.6166 12.8897 29.9196 12.9342C30.0296 12.9492 30.1344 12.9901 30.2254 13.0536C30.3164 13.1171 30.391 13.2013 30.4431 13.2993C31.2833 14.7529 31.8225 16.3607 32.0286 18.027C32.06 18.2776 32.094 18.5275 32.1254 18.7775V20.3499Z" fill="white"/>
<path d="M16.3833 15.1774C16.6803 15.0112 16.9676 14.8568 17.2463 14.688C17.2758 14.6656 17.3002 14.6372 17.3179 14.6048C17.3356 14.5723 17.3462 14.5364 17.3491 14.4995C17.3608 14.2299 17.3491 13.9597 17.355 13.6901C17.3641 13.2576 17.6684 12.9448 18.099 12.9422C19.0717 12.9361 20.0448 12.9361 21.018 12.9422C21.4512 12.9422 21.7574 13.2523 21.7698 13.6829C21.779 14.0009 21.6749 14.3811 21.8156 14.6206C21.9563 14.8601 22.3332 14.9634 22.6139 15.112C22.6507 15.128 22.6903 15.1363 22.7304 15.1363C22.7705 15.1363 22.8101 15.128 22.8469 15.112C23.087 14.9903 23.3141 14.843 23.5516 14.7194C23.9442 14.51 24.3401 14.6094 24.5678 14.9955C25.0621 15.8322 25.5482 16.6739 26.0263 17.5206C26.2508 17.9191 26.1323 18.3058 25.7358 18.5525C25.5277 18.6834 25.3157 18.8058 25.0998 18.9203C24.9859 18.9805 24.9349 19.0446 24.9447 19.182C24.9617 19.4437 24.9395 19.7055 24.9539 19.9672C24.9579 20.0111 24.9708 20.0537 24.9917 20.0925C25.0126 20.1313 25.0411 20.1655 25.0756 20.193C25.2928 20.3376 25.5284 20.4547 25.7496 20.5921C26.131 20.8303 26.2482 21.219 26.0296 21.6077C25.5498 22.4618 25.0597 23.3105 24.5593 24.1537C24.3388 24.5228 23.9462 24.6163 23.5582 24.4181C23.4129 24.3435 23.2742 24.2571 23.1322 24.176L22.7396 23.9528C22.4425 24.119 22.1546 24.2728 21.8758 24.4416C21.8464 24.464 21.822 24.4924 21.8043 24.5248C21.7866 24.5573 21.7759 24.5932 21.7731 24.6301C21.7613 24.8997 21.7731 25.1699 21.7666 25.4395C21.7567 25.872 21.4531 26.1848 21.0226 26.1881C20.0498 26.1946 19.0768 26.1946 18.1035 26.1881C17.6599 26.1881 17.3589 25.8714 17.3517 25.4225C17.3471 25.128 17.4446 24.7819 17.3209 24.5542C17.1973 24.3265 16.8452 24.2506 16.6155 24.0765C16.4487 23.9502 16.3244 23.9627 16.1634 24.0713C15.9725 24.1971 15.7745 24.312 15.5706 24.4155C15.178 24.6222 14.7853 24.5228 14.5563 24.1374C14.0621 23.3007 13.5759 22.459 13.0978 21.6122C12.8734 21.2151 12.9937 20.827 13.3896 20.581C13.5984 20.4501 13.8104 20.3291 14.0263 20.2139C14.1395 20.1537 14.1899 20.0876 14.1801 19.9476C14.1624 19.6859 14.1853 19.4241 14.1703 19.1624C14.1662 19.1185 14.1534 19.0759 14.1325 19.0371C14.1115 18.9983 14.083 18.9641 14.0486 18.9366C13.8457 18.7999 13.6252 18.6899 13.4151 18.5643C12.9826 18.3026 12.8707 17.9139 13.1181 17.4787C13.5866 16.6551 14.0603 15.8346 14.5393 15.0171C14.786 14.5964 15.1793 14.4936 15.6092 14.7325C15.8748 14.879 16.134 15.0341 16.3833 15.1774ZM14.733 17.6247C14.9424 17.7464 15.1256 17.8504 15.3082 17.959C15.653 18.1645 15.742 18.4289 15.7126 18.8254C15.6751 19.3119 15.674 19.8005 15.7093 20.2872C15.742 20.7151 15.6582 20.9625 15.2813 21.1863L14.7343 21.5095L15.4678 22.7776C15.6641 22.6644 15.8487 22.5584 16.0319 22.455C16.4042 22.245 16.6574 22.2915 17.0055 22.527C17.4089 22.8011 17.8309 23.0466 18.2684 23.2618C18.6578 23.4523 18.8233 23.6466 18.8253 24.0889C18.8253 24.2977 18.8253 24.5058 18.8253 24.706H20.2975C20.2975 24.4724 20.2975 24.2532 20.2975 24.034C20.3028 23.6571 20.4624 23.4189 20.821 23.2874C21.3065 23.1127 21.7563 22.8516 22.1487 22.5165C22.4281 22.2757 22.7376 22.2515 23.0563 22.4341L23.6602 22.777L24.3931 21.5056C24.1837 21.3852 24.0005 21.2818 23.8173 21.1732C23.4705 20.9657 23.3828 20.7034 23.4122 20.3075C23.45 19.821 23.4513 19.3324 23.4162 18.8457C23.3834 18.4158 23.4665 18.1691 23.8434 17.9466L24.3918 17.6234L23.6596 16.3565C23.4482 16.4776 23.2513 16.5915 23.053 16.7027C22.7311 16.8826 22.4248 16.8552 22.1454 16.6144C21.7602 16.2836 21.3178 16.0259 20.84 15.854C20.4579 15.714 20.3034 15.481 20.3002 15.0688C20.3002 14.8522 20.3002 14.635 20.3002 14.4262H18.8279C18.8279 14.6513 18.8279 14.862 18.8279 15.0727C18.824 15.4791 18.6512 15.6813 18.2881 15.8619C17.8446 16.0826 17.4158 16.3315 17.0042 16.6072C16.6653 16.8342 16.4101 16.8833 16.0515 16.6844C15.8604 16.5784 15.672 16.4691 15.4691 16.3572L14.733 17.6247Z" fill="white"/>
<path d="M19.562 16.8662C20.2772 16.8679 20.9625 17.1528 21.4682 17.6585C21.9739 18.1641 22.2588 18.8495 22.2605 19.5647C22.2584 20.2797 21.9735 20.9649 21.4679 21.4705C20.9622 21.9762 20.2771 22.2611 19.562 22.2632C18.8471 22.2606 18.1621 21.9754 17.6567 21.4697C17.1513 20.964 16.8664 20.279 16.8641 19.564C16.8666 18.8493 17.1516 18.1644 17.657 17.659C18.1624 17.1536 18.8472 16.8686 19.562 16.8662ZM20.7876 19.5621C20.7862 19.2361 20.6554 18.924 20.424 18.6944C20.1926 18.4649 19.8795 18.3366 19.5535 18.3378C19.2318 18.3408 18.9242 18.4699 18.6965 18.6971C18.4688 18.9244 18.3393 19.2319 18.3358 19.5536C18.334 19.8795 18.4617 20.1928 18.6907 20.4247C18.9198 20.6565 19.2315 20.788 19.5574 20.7903C19.8833 20.7904 20.196 20.6613 20.4268 20.4311C20.6575 20.201 20.7875 19.8886 20.7882 19.5627L20.7876 19.5621Z" fill="white"/>
</svg>
