<svg width="45" height="45" viewBox="0 0 45 45" fill="none" xmlns="http://www.w3.org/2000/svg">
<circle cx="22.5" cy="22.5" r="20.5" fill="#00577D"/>
<circle cx="22.5" cy="22.5" r="21.25" stroke="white" stroke-opacity="0.2" stroke-width="1.5"/>
<path d="M29.5 26.0001V29.5001C29.5 29.7321 29.4078 29.9547 29.2437 30.1188C29.0796 30.2829 28.8571 30.3751 28.625 30.3751H15.5C15.2679 30.3751 15.0454 30.2829 14.8813 30.1188C14.7172 29.9547 14.625 29.7321 14.625 29.5001V19.0001C14.625 18.768 14.7172 18.5455 14.8813 18.3814C15.0454 18.2173 15.2679 18.1251 15.5 18.1251H28.625C28.8571 18.1251 29.0796 18.2173 29.2437 18.3814C29.4078 18.5455 29.5 18.768 29.5 19.0001V22.5001" stroke="white" stroke-width="1.75" stroke-linecap="round" stroke-linejoin="round"/>
<path d="M29.5004 22.5H26.8754C26.3921 22.5 26.0004 22.8918 26.0004 23.375V25.125C26.0004 25.6082 26.3921 26 26.8754 26H29.5004C29.9836 26 30.3754 25.6082 30.3754 25.125V23.375C30.3754 22.8918 29.9836 22.5 29.5004 22.5Z" stroke="white" stroke-width="1.75" stroke-linecap="round" stroke-linejoin="round"/>
<path d="M17.25 18.125L24.3638 14.9663C24.5688 14.8745 24.8012 14.8652 25.013 14.9401C25.2247 15.015 25.3995 15.1685 25.5013 15.3688L26.875 18.125" stroke="white" stroke-width="1.75" stroke-linecap="round" stroke-linejoin="round"/>
</svg>
